<svg xmlns="http://www.w3.org/2000/svg" width="16" height="16.156" viewBox="0 0 16 16.156"><defs><style>.cls-1{fill:#90d4f5;fill-rule:evenodd}</style></defs><path id="speech-bubbles_kopia_2" data-name="speech-bubbles kopia 2" class="cls-1" d="M566 929h8a2 2 0 0 1 2 2v5a2 2 0 0 1-2 2h-8a2 2 0 0 1-2-2v-5a2 2 0 0 1 2-2zm.094 8.625v4.531l3.906-4.281zM569 926.281h6.75a2 2 0 0 1 2 2v5.688a2 2 0 0 1-2 2H569a2 2 0 0 1-2-2v-5.688a2 2 0 0 1 2-2zm1-.281h8a2 2 0 0 1 2 2v4.968a2 2 0 0 1-2 2h-8a2 2 0 0 1-2-2V928a2 2 0 0 1 2-2zm8 7.656V939l-3.938-4.031zm-.031 5.313l-3.531-3.751-1.563.032 3.948 4.344z" transform="translate(-564 -926)"/></svg>