<svg xmlns="http://www.w3.org/2000/svg" width="16" height="16.156" viewBox="0 0 16 16.156"><defs><style>.cls-1{fill:#fff;fill-rule:evenodd}</style></defs><path id="speech-bubbles" class="cls-1" d="M900 677h8a2 2 0 0 1 2 2v5a2 2 0 0 1-2 2h-8a2 2 0 0 1-2-2v-5a2 2 0 0 1 2-2zm.094 8.625v4.531l3.906-4.281zM903 674.281h6.75a2 2 0 0 1 2 2v5.688a2 2 0 0 1-2 2H903a2 2 0 0 1-2-2v-5.688a2 2 0 0 1 2-2zm1-.281h8a2 2 0 0 1 2 2v4.968a2 2 0 0 1-2 2h-8a2 2 0 0 1-2-2V676a2 2 0 0 1 2-2zm8 7.656V687l-3.938-4.032zm-.031 5.313l-3.531-3.751-1.563.032 3.948 4.344z" transform="translate(-898 -674)"/></svg>