<svg xmlns="http://www.w3.org/2000/svg" width="16" height="15.938" viewBox="0 0 16 15.938"><defs><style>.cls-1{fill:#fff;fill-rule:evenodd;filter:url(#filter)}</style><filter id="filter" x="928" y="16.063" width="16" height="15.938" filterUnits="userSpaceOnUse"><feFlood result="flood" flood-color="#d4d4d4"/><feComposite result="composite" operator="in" in2="SourceGraphic"/><feBlend result="blend" in2="SourceGraphic"/></filter></defs><path id="linked_in" data-name="linked in" class="cls-1" d="M931.428 16.047h9.146A3.422 3.422 0 0 1 944 19.469v9.107A3.422 3.422 0 0 1 940.574 32h-9.146a3.422 3.422 0 0 1-3.422-3.422v-9.109a3.422 3.422 0 0 1 3.422-3.422zm.556 3.953a1.022 1.022 0 1 1-1.14 1.016 1.084 1.084 0 0 1 1.14-1.016zM931 22.969h2V29h-2v-6.031zm3.062-.062h1.876v6.063h-1.876v-6.064zm1.5 1.469a2.8 2.8 0 0 1 2.375-1.781c1.688 0 2.063.938 2.063 2.719v3.625h-2v-3.814a.892.892 0 0 0-1-1.157c-1.312 0-1.062 1.313-1.062 2.25s-.376-1.843-.376-1.843z" transform="translate(-928 -16.063)"/></svg>