<svg xmlns="http://www.w3.org/2000/svg" width="13.094" height="16.125" viewBox="0 0 13.094 16.125"><defs><style>.cls-1{fill:#fff;fill-rule:evenodd;filter:url(#filter)}</style><filter id="filter" x="859" y="15.969" width="13.094" height="16.125" filterUnits="userSpaceOnUse"><feFlood result="flood" flood-color="#d4d4d4"/><feComposite result="composite" operator="in" in2="SourceGraphic"/><feBlend result="blend" in2="SourceGraphic"/></filter></defs><path id="evernote" class="cls-1" d="M867.969 28.969v-.928a14.518 14.518 0 0 0-1.913 0 1.475 1.475 0 0 0-.791.472 2.117 2.117 0 0 0-.229.889c-.013.205-.018.538-.018.712a5.484 5.484 0 0 0 .068.92 1.957 1.957 0 0 0 .151.521.42.42 0 0 0 .1.14.768.768 0 0 0 .175.118 1.812 1.812 0 0 0 .438.133 15.878 15.878 0 0 0 4.368-.005 1.343 1.343 0 0 0 .584-.461 4.362 4.362 0 0 0 .81-1.657 26.02 26.02 0 0 0 .344-5.668c0-1.874-.142-3.628-.213-4.563-.077-1-.077-1.53-1.409-1.646l-.554-.072s-3.067-.541-3.144-.827a1.665 1.665 0 0 0-.277-.587 1.042 1.042 0 0 0-.38-.312 1.892 1.892 0 0 0-.551-.148c-.212-.029-.817-.029-.967-.027a.551.551 0 0 0-.576.544v3.755a1.672 1.672 0 0 1-.109.63 1.905 1.905 0 0 1-.688.107c-.147.056-3.7 0-3.7 0a.651.651 0 0 0-.456.883 23.282 23.282 0 0 0 .664 2.415 8.311 8.311 0 0 0 .477 1.412 1.73 1.73 0 0 0 .3.467.742.742 0 0 0 .186.123 2.519 2.519 0 0 0 .307.125 7.689 7.689 0 0 0 .859.224 20.97 20.97 0 0 0 1.972.3c.386.041.7.063.856.063a.21.21 0 0 0 .121-.037.357.357 0 0 0 .1-.115 1.324 1.324 0 0 0 .139-.429c.064-.346.074-.765.1-1.036a1.219 1.219 0 0 1 .029-.2.288.288 0 0 1 .029-.078.144.144 0 0 1 .029-.026.1.1 0 0 1 .061-.021.135.135 0 0 1 .062.016.21.21 0 0 1 .044.034.527.527 0 0 1 .068.09c.043.069.089.16.146.262a2.291 2.291 0 0 0 .506.655 1.821 1.821 0 0 0 .594.493c.329.083.7.135 1.052.193a15.1 15.1 0 0 1 1.705.233.906.906 0 0 1 .416.314 1.264 1.264 0 0 1 .1.412c.034.345.067.727.067 1.084a3.405 3.405 0 0 1-.058.679.991.991 0 0 1-.228.5 11.99 11.99 0 0 1-2.743-.028.734.734 0 0 1-.21-.759c.094-.437.75-.312.75-.312zm-5.029-13l.024 3.2a.723.723 0 0 1-.671.815c-.719 0-3.3-.024-3.3-.024zm6.923 6.509s-.449-1.376-1.346-1.436-2 1.735-1.226 1.855.478-.18 1.076-.209a6.76 6.76 0 0 1 1.287.209c.452.029.213-.27.213-.42z" transform="translate(-859 -15.969)"/></svg>