<svg xmlns="http://www.w3.org/2000/svg" xmlns:xlink="http://www.w3.org/1999/xlink" width="16" height="15.938" viewBox="0 0 16 15.938">
  <defs>
    <style>
      .cls-1 {
        fill: #fff;
        fill-rule: evenodd;
        filter: url(#filter);
      }
    </style>
    <filter id="filter" x="928" y="16.063" width="16" height="15.938" filterUnits="userSpaceOnUse">
      <feFlood result="flood" flood-color="#d4d4d4"/>
      <feComposite result="composite" operator="in" in2="SourceGraphic"/>
      <feBlend result="blend" in2="SourceGraphic"/>
    </filter>
  </defs>
  <path id="linked_in" data-name="linked in" class="cls-1" d="M931.428,16.047h9.146A3.422,3.422,0,0,1,944,19.469v9.107A3.422,3.422,0,0,1,940.574,32h-9.146a3.422,3.422,0,0,1-3.422-3.422V19.469A3.422,3.422,0,0,1,931.428,16.047ZM931.984,20a1.022,1.022,0,1,1-1.14,1.016A1.084,1.084,0,0,1,931.984,20ZM931,22.969h2V29h-2V22.969Zm3.062-.062h1.876v6.063h-1.876V22.906Zm1.5,1.469a2.8,2.8,0,0,1,2.375-1.781c1.688,0,2.063.938,2.063,2.719v3.625h-2V25.125a0.892,0.892,0,0,0-1-1.157c-1.312,0-1.062,1.313-1.062,2.25S935.562,24.375,935.562,24.375Z" transform="translate(-928 -16.063)"/>
</svg>
